<mxfile host="app.diagrams.net" modified="2022-01-26T08:24:17.822Z" agent="5.0 (Windows NT 10.0; Win64; x64) AppleWebKit/537.36 (KHTML, like Gecko) Chrome/97.0.4692.71 Safari/537.36" etag="9C_MpRjzzhHJFeRreg44" version="16.4.7" type="github">
  <diagram name="Page-1" id="e7e014a7-5840-1c2e-5031-d8a46d1fe8dd">
    <mxGraphModel dx="1422" dy="882" grid="1" gridSize="10" guides="1" tooltips="1" connect="1" arrows="1" fold="1" page="1" pageScale="1" pageWidth="1169" pageHeight="826" background="none" math="0" shadow="0">
      <root>
        <mxCell id="0" />
        <mxCell id="1" parent="0" />
        <mxCell id="2" value="Boss-开发" style="swimlane;whiteSpace=wrap" parent="1" vertex="1">
          <mxGeometry x="310" y="30" width="190" height="640" as="geometry" />
        </mxCell>
        <mxCell id="5" value="" style="ellipse;shape=startState;fillColor=#000000;strokeColor=#ff0000;" parent="2" vertex="1">
          <mxGeometry x="80" y="40" width="30" height="30" as="geometry" />
        </mxCell>
        <mxCell id="6" value="" style="edgeStyle=elbowEdgeStyle;elbow=horizontal;verticalAlign=bottom;endArrow=open;endSize=8;strokeColor=#FF0000;endFill=1;rounded=0" parent="2" source="5" target="7" edge="1">
          <mxGeometry x="100" y="40" as="geometry">
            <mxPoint x="115" y="110" as="targetPoint" />
          </mxGeometry>
        </mxCell>
        <mxCell id="7" value="抽象策略需求" style="" parent="2" vertex="1">
          <mxGeometry x="40" y="140" width="110" height="50" as="geometry" />
        </mxCell>
        <mxCell id="8" value="构建策略模板树" style="fontColor=#00CC00;" parent="2" vertex="1">
          <mxGeometry x="40" y="240" width="110" height="50" as="geometry" />
        </mxCell>
        <mxCell id="9" value="" style="endArrow=open;strokeColor=#FF0000;endFill=1;rounded=0" parent="2" target="8" edge="1">
          <mxGeometry relative="1" as="geometry">
            <mxPoint x="95" y="190" as="sourcePoint" />
          </mxGeometry>
        </mxCell>
        <mxCell id="10" value="保存并通知产运" style="" parent="2" vertex="1">
          <mxGeometry x="40" y="340" width="110" height="50" as="geometry" />
        </mxCell>
        <mxCell id="11" value="" style="endArrow=open;strokeColor=#FF0000;endFill=1;rounded=0;" parent="2" source="8" edge="1">
          <mxGeometry relative="1" as="geometry">
            <mxPoint x="95" y="340" as="targetPoint" />
          </mxGeometry>
        </mxCell>
        <mxCell id="ksiWpZ1G0YaG24JdR0EO-41" value="" style="ellipse;whiteSpace=wrap;html=1;aspect=fixed;fontColor=#00CC00;" parent="1" vertex="1">
          <mxGeometry x="80" y="170" width="40" height="40" as="geometry" />
        </mxCell>
        <mxCell id="ksiWpZ1G0YaG24JdR0EO-43" value="低ECPM过滤策略" style="text;html=1;align=center;verticalAlign=middle;resizable=0;points=[];autosize=1;strokeColor=none;fillColor=none;fontColor=#000000;" parent="1" vertex="1">
          <mxGeometry x="45" y="140" width="110" height="20" as="geometry" />
        </mxCell>
        <mxCell id="ksiWpZ1G0YaG24JdR0EO-44" style="edgeStyle=orthogonalEdgeStyle;rounded=0;orthogonalLoop=1;jettySize=auto;html=1;entryX=1.025;entryY=0.35;entryDx=0;entryDy=0;entryPerimeter=0;fontColor=#000000;strokeColor=#000000;endArrow=none;endFill=0;dashed=1;dashPattern=1 4;" parent="1" source="8" target="ksiWpZ1G0YaG24JdR0EO-41" edge="1">
          <mxGeometry relative="1" as="geometry">
            <Array as="points">
              <mxPoint x="290" y="275" />
              <mxPoint x="290" y="184" />
            </Array>
          </mxGeometry>
        </mxCell>
        <mxCell id="mSakcA1AUA2T8X-hf3nH-31" value="Boss-开发" style="swimlane;whiteSpace=wrap" vertex="1" parent="1">
          <mxGeometry x="500" y="30" width="210" height="640" as="geometry" />
        </mxCell>
        <mxCell id="mSakcA1AUA2T8X-hf3nH-39" value="根据策略ID&#xa;打开策略模板树" style="" vertex="1" parent="mSakcA1AUA2T8X-hf3nH-31">
          <mxGeometry x="40" y="340" width="110" height="50" as="geometry" />
        </mxCell>
        <mxCell id="mSakcA1AUA2T8X-hf3nH-41" value="选择可编辑维度,&#xa;新增/修改纬度值" style="fillColor=rgb(255, 255, 255);strokeColor=rgb(0, 0, 0);fontColor=rgb(0, 0, 0);" vertex="1" parent="mSakcA1AUA2T8X-hf3nH-31">
          <mxGeometry x="40" y="470" width="110" height="50" as="geometry" />
        </mxCell>
        <mxCell id="mSakcA1AUA2T8X-hf3nH-52" value="异步同步" style="text;html=1;align=center;verticalAlign=middle;resizable=0;points=[];autosize=1;strokeColor=none;fillColor=none;" vertex="1" parent="mSakcA1AUA2T8X-hf3nH-31">
          <mxGeometry x="150" y="440" width="60" height="20" as="geometry" />
        </mxCell>
        <mxCell id="mSakcA1AUA2T8X-hf3nH-40" style="edgeStyle=orthogonalEdgeStyle;rounded=0;orthogonalLoop=1;jettySize=auto;html=1;entryX=-0.009;entryY=0.5;entryDx=0;entryDy=0;entryPerimeter=0;strokeColor=#FF3333;" edge="1" parent="1" target="mSakcA1AUA2T8X-hf3nH-39">
          <mxGeometry relative="1" as="geometry">
            <mxPoint x="460" y="395" as="sourcePoint" />
          </mxGeometry>
        </mxCell>
        <mxCell id="mSakcA1AUA2T8X-hf3nH-43" style="edgeStyle=orthogonalEdgeStyle;rounded=0;orthogonalLoop=1;jettySize=auto;html=1;entryX=0.5;entryY=-0.04;entryDx=0;entryDy=0;entryPerimeter=0;strokeColor=#FF3333;" edge="1" parent="1" target="mSakcA1AUA2T8X-hf3nH-41">
          <mxGeometry relative="1" as="geometry">
            <mxPoint x="595" y="420" as="sourcePoint" />
            <mxPoint x="549.01" y="405" as="targetPoint" />
          </mxGeometry>
        </mxCell>
        <mxCell id="mSakcA1AUA2T8X-hf3nH-44" value="配置同步引擎" style="swimlane;whiteSpace=wrap" vertex="1" parent="1">
          <mxGeometry x="710" y="30" width="190" height="640" as="geometry" />
        </mxCell>
        <mxCell id="mSakcA1AUA2T8X-hf3nH-46" value="同步redis/kafka" style="fillColor=rgb(255, 255, 255);strokeColor=rgb(0, 0, 0);fontColor=rgb(0, 0, 0);" vertex="1" parent="mSakcA1AUA2T8X-hf3nH-44">
          <mxGeometry x="40" y="470" width="110" height="50" as="geometry" />
        </mxCell>
        <mxCell id="mSakcA1AUA2T8X-hf3nH-50" value="" style="shape=flexArrow;endArrow=classic;html=1;rounded=0;strokeColor=#FF3333;endWidth=66;endSize=7.33;dashed=1;strokeWidth=2;" edge="1" parent="mSakcA1AUA2T8X-hf3nH-44">
          <mxGeometry width="50" height="50" relative="1" as="geometry">
            <mxPoint x="-30" y="494.5" as="sourcePoint" />
            <mxPoint x="30" y="495" as="targetPoint" />
          </mxGeometry>
        </mxCell>
        <mxCell id="mSakcA1AUA2T8X-hf3nH-47" value="播放引擎" style="swimlane;whiteSpace=wrap" vertex="1" parent="1">
          <mxGeometry x="900" y="30" width="190" height="640" as="geometry" />
        </mxCell>
        <mxCell id="mSakcA1AUA2T8X-hf3nH-49" value="COW更新配置" style="fillColor=rgb(255, 255, 255);strokeColor=rgb(0, 0, 0);fontColor=rgb(0, 0, 0);" vertex="1" parent="mSakcA1AUA2T8X-hf3nH-47">
          <mxGeometry x="40" y="470" width="110" height="50" as="geometry" />
        </mxCell>
        <mxCell id="mSakcA1AUA2T8X-hf3nH-53" value="异步同步" style="text;html=1;align=center;verticalAlign=middle;resizable=0;points=[];autosize=1;strokeColor=none;fillColor=none;" vertex="1" parent="mSakcA1AUA2T8X-hf3nH-47">
          <mxGeometry x="-40" y="440" width="60" height="20" as="geometry" />
        </mxCell>
        <mxCell id="mSakcA1AUA2T8X-hf3nH-54" value="" style="shape=flexArrow;endArrow=classic;html=1;rounded=0;strokeColor=#FF3333;endWidth=66;endSize=7.33;dashed=1;strokeWidth=2;" edge="1" parent="mSakcA1AUA2T8X-hf3nH-47">
          <mxGeometry width="50" height="50" relative="1" as="geometry">
            <mxPoint x="-30" y="494.5" as="sourcePoint" />
            <mxPoint x="30" y="495" as="targetPoint" />
          </mxGeometry>
        </mxCell>
        <mxCell id="mSakcA1AUA2T8X-hf3nH-55" value="" style="ellipse;shape=startState;fillColor=#000000;strokeColor=#ff0000;" vertex="1" parent="mSakcA1AUA2T8X-hf3nH-47">
          <mxGeometry x="80" y="590" width="30" height="30" as="geometry" />
        </mxCell>
        <mxCell id="mSakcA1AUA2T8X-hf3nH-56" value="" style="edgeStyle=elbowEdgeStyle;elbow=horizontal;verticalAlign=bottom;endArrow=open;endSize=8;strokeColor=#FF0000;endFill=1;rounded=0" edge="1" parent="mSakcA1AUA2T8X-hf3nH-47">
          <mxGeometry x="-210.5" y="440" as="geometry">
            <mxPoint x="94.5" y="595" as="targetPoint" />
            <mxPoint x="95" y="520" as="sourcePoint" />
          </mxGeometry>
        </mxCell>
      </root>
    </mxGraphModel>
  </diagram>
</mxfile>
